<?xml version="1.0" encoding="UTF-8"?>
<!DOCTYPE svg PUBLIC "-//W3C//DTD SVG 1.1//EN" "http://www.w3.org/Graphics/SVG/1.1/DTD/svg11.dtd">
<svg xmlns="http://www.w3.org/2000/svg" version="1.1" width="320px" height="1440px" style="shape-rendering:geometricPrecision; text-rendering:geometricPrecision; image-rendering:optimizeQuality; fill-rule:evenodd; clip-rule:evenodd" xmlns:xlink="http://www.w3.org/1999/xlink">
<g><path style="opacity:0.999" fill="#000a75" d="M -0.5,-0.5 C 74.1667,-0.5 148.833,-0.5 223.5,-0.5C 207.037,49.3886 190.871,99.3886 175,149.5C 151.698,224.511 137.198,301.177 131.5,379.5C 127.771,442.646 133.271,504.98 148,566.5C 154.732,594.764 162.399,622.764 171,650.5C 188.268,704.303 205.934,757.969 224,811.5C 238.321,855.465 249.988,900.132 259,945.5C 273.334,1031.86 275.334,1118.53 265,1205.5C 261.36,1237.98 256.693,1270.31 251,1302.5C 242.1,1348.17 233.266,1393.83 224.5,1439.5C 149.5,1439.5 74.5,1439.5 -0.5,1439.5C -0.5,959.5 -0.5,479.5 -0.5,-0.5 Z"/></g>
</svg>
